<?xml version="1.0" encoding="UTF-8"?>
<svg version="1.1" xmlns="http://www.w3.org/2000/svg" width="256" height="256">
<path d="M0 0 C2.52096309 2.2275585 4.98034211 4.50638231 7.42578125 6.81640625 C8.17601562 7.5021875 8.92625 8.18796875 9.69921875 8.89453125 C25.98970564 24.32762409 36.54719771 45.38249626 42.42578125 66.81640625 C42.93431641 68.57791016 42.93431641 68.57791016 43.453125 70.375 C51.37949267 103.7241875 43.69917207 138.85763396 26.42578125 167.81640625 C21.49702501 175.46447627 15.66316104 182.21338695 9.42578125 188.81640625 C8.74 189.56664062 8.05421875 190.316875 7.34765625 191.08984375 C-8.08543659 207.38033064 -29.14030876 217.93782271 -50.57421875 223.81640625 C-51.74855469 224.15542969 -52.92289063 224.49445313 -54.1328125 224.84375 C-87.482 232.77011767 -122.61544646 225.08979707 -151.57421875 207.81640625 C-159.22228877 202.88765001 -165.97119945 197.05378604 -172.57421875 190.81640625 C-173.32445312 190.130625 -174.0746875 189.44484375 -174.84765625 188.73828125 C-191.13814314 173.30518841 -201.69563521 152.25031624 -207.57421875 130.81640625 C-207.91324219 129.64207031 -208.25226563 128.46773437 -208.6015625 127.2578125 C-216.52793017 93.908625 -208.84760957 58.77517854 -191.57421875 29.81640625 C-186.64546251 22.16833623 -180.81159854 15.41942555 -174.57421875 8.81640625 C-173.8884375 8.06617188 -173.20265625 7.3159375 -172.49609375 6.54296875 C-157.06300091 -9.74751814 -136.00812874 -20.30501021 -114.57421875 -26.18359375 C-113.39988281 -26.52261719 -112.22554688 -26.86164062 -111.015625 -27.2109375 C-72.53579317 -36.35674638 -29.92130312 -25.38089294 0 0 Z M-127.57421875 61.81640625 C-136.88208533 73.88465279 -141.93964028 88.5104713 -140.57421875 103.81640625 C-138.28471613 121.11255787 -130.55401919 135.3480246 -116.7734375 145.9765625 C-102.72250382 155.33722695 -87.43885882 158.75454359 -70.82421875 155.75390625 C-55.19550477 152.07556467 -42.48334549 143.62705403 -33.57421875 130.25390625 C-24.91553903 115.40142644 -22.54466846 100.20405773 -26.484375 83.46484375 C-31.01190269 68.30817401 -40.18733228 56.1996656 -53.890625 48.2109375 C-79.56260052 34.8704786 -108.19474579 40.47882904 -127.57421875 61.81640625 Z " fill="#FBFBFB" transform="translate(210.57421875,29.18359375)"/>
<path d="M0 0 C2.52096309 2.2275585 4.98034211 4.50638231 7.42578125 6.81640625 C8.17601562 7.5021875 8.92625 8.18796875 9.69921875 8.89453125 C25.98970564 24.32762409 36.54719771 45.38249626 42.42578125 66.81640625 C42.93431641 68.57791016 42.93431641 68.57791016 43.453125 70.375 C51.37949267 103.7241875 43.69917207 138.85763396 26.42578125 167.81640625 C21.49702501 175.46447627 15.66316104 182.21338695 9.42578125 188.81640625 C8.74 189.56664062 8.05421875 190.316875 7.34765625 191.08984375 C-8.08543659 207.38033064 -29.14030876 217.93782271 -50.57421875 223.81640625 C-51.74855469 224.15542969 -52.92289063 224.49445313 -54.1328125 224.84375 C-87.482 232.77011767 -122.61544646 225.08979707 -151.57421875 207.81640625 C-159.22228877 202.88765001 -165.97119945 197.05378604 -172.57421875 190.81640625 C-173.32445312 190.130625 -174.0746875 189.44484375 -174.84765625 188.73828125 C-191.13814314 173.30518841 -201.69563521 152.25031624 -207.57421875 130.81640625 C-207.91324219 129.64207031 -208.25226563 128.46773437 -208.6015625 127.2578125 C-216.52793017 93.908625 -208.84760957 58.77517854 -191.57421875 29.81640625 C-186.64546251 22.16833623 -180.81159854 15.41942555 -174.57421875 8.81640625 C-173.8884375 8.06617188 -173.20265625 7.3159375 -172.49609375 6.54296875 C-157.06300091 -9.74751814 -136.00812874 -20.30501021 -114.57421875 -26.18359375 C-113.39988281 -26.52261719 -112.22554688 -26.86164062 -111.015625 -27.2109375 C-72.53579317 -36.35674638 -29.92130312 -25.38089294 0 0 Z M-161.57421875 28.81640625 C-173.89500486 42.86093378 -181.63639564 59.65020572 -185.57421875 77.81640625 C-185.90873047 79.04423828 -185.90873047 79.04423828 -186.25 80.296875 C-192.35928331 104.44308998 -184.82202268 132.56437279 -172.60546875 153.58984375 C-169.61162262 158.34545318 -166.28375118 162.60424634 -162.57421875 166.81640625 C-161.89875 167.63496094 -161.22328125 168.45351562 -160.52734375 169.296875 C-142.98759099 189.94129202 -117.19001757 201.14839036 -90.57421875 203.81640625 C-64.69201757 205.66640551 -36.83663103 197.86841821 -16.8984375 180.86328125 C-15.74794922 179.85007813 -15.74794922 179.85007813 -14.57421875 178.81640625 C-13.75566406 178.1409375 -12.93710938 177.46546875 -12.09375 176.76953125 C4.21544134 162.91304 14.07550996 144.29430736 19.42578125 123.81640625 C19.74417969 122.70265625 20.06257812 121.58890625 20.390625 120.44140625 C27.21530964 93.7716709 20.27177361 65.85407667 6.55175781 42.62451172 C3.88717431 38.34569441 0.77467301 34.56846556 -2.57421875 30.81640625 C-3.24839844 30.00042969 -3.92257813 29.18445312 -4.6171875 28.34375 C-18.46321807 12.0261147 -37.09896565 2.1659857 -57.57421875 -3.18359375 C-58.68796875 -3.50199219 -59.80171875 -3.82039063 -60.94921875 -4.1484375 C-97.26538567 -13.44160757 -136.647519 1.94549184 -161.57421875 28.81640625 Z " fill="#000000" transform="translate(210.57421875,29.18359375)"/>
<path d="M0 0 C2.15130154 1.64446949 4.20016944 3.35956496 6.2421875 5.13671875 C6.81710938 5.56984375 7.39203125 6.00296875 7.984375 6.44921875 C21.57385791 16.97010874 31.1422579 35.11715525 33.84765625 51.890625 C36.54367665 76.7645516 32.76930517 99.00824333 16.93652344 118.84643555 C3.70414121 134.56792921 -15.17000469 145.79913206 -35.7578125 148.13671875 C-60.21569431 150.02555362 -81.23543957 145.35454176 -100.2578125 129.32421875 C-115.83718291 115.52734501 -126.36565068 96.16334981 -127.9765625 75.30419922 C-129.20414943 51.61560771 -124.19804031 30.87047329 -108.25 12.6875 C-79.25805449 -16.98607432 -35.1648496 -23.75868733 0 0 Z M-91.7578125 30.13671875 C-101.06567908 42.20496529 -106.12323403 56.8307838 -104.7578125 72.13671875 C-102.46830988 89.43287037 -94.73761294 103.6683371 -80.95703125 114.296875 C-66.90609757 123.65753945 -51.62245257 127.07485609 -35.0078125 124.07421875 C-19.37909852 120.39587717 -6.66693924 111.94736653 2.2421875 98.57421875 C10.90086722 83.72173894 13.27173779 68.52437023 9.33203125 51.78515625 C4.80450356 36.62848651 -4.37092603 24.5199781 -18.07421875 16.53125 C-43.74619427 3.1907911 -72.37833954 8.79914154 -91.7578125 30.13671875 Z " fill="#010101" transform="translate(174.7578125,60.86328125)"/>
</svg>
