<svg width="720" height="720" xmlns="http://www.w3.org/2000/svg" xmlns:xlink="http://www.w3.org/1999/xlink" overflow="hidden"><defs><clipPath id="clip0"><rect x="0" y="0" width="720" height="720"/></clipPath></defs><g clip-path="url(#clip0)"><rect x="0" y="0" width="720" height="720" fill="#FFFFFF" fill-opacity="0"/><path d="M360.5 180.972C261.35 180.972 180.972 261.35 180.972 360.5 180.972 459.65 261.35 540.028 360.5 540.028 459.65 540.028 540.028 459.65 540.028 360.5 540.028 261.35 459.65 180.972 360.5 180.972ZM360.5 0.500053C559.323 0.500053 720.5 161.678 720.5 360.5 720.5 559.323 559.323 720.5 360.5 720.5 161.678 720.5 0.500053 559.323 0.500053 360.5 0.500053 161.678 161.678 0.500053 360.5 0.500053Z" stroke="#000000" stroke-width="1.33333" stroke-miterlimit="8" fill-rule="evenodd"/><path d="M360.5 181.188C261.468 181.188 181.188 261.468 181.188 360.5 181.188 459.532 261.468 539.812 360.5 539.812 459.532 539.812 539.812 459.532 539.812 360.5 539.812 261.468 459.532 181.188 360.5 181.188ZM360.5 58.5001C527.29 58.5001 662.5 193.71 662.5 360.5 662.5 527.29 527.29 662.5 360.5 662.5 193.71 662.5 58.5001 527.29 58.5001 360.5 58.5001 193.71 193.71 58.5001 360.5 58.5001Z" stroke="#000000" stroke-width="1.33333" stroke-miterlimit="8" fill="#FFFFFF" fill-rule="evenodd"/><path d="M360.5 180.731C261.216 180.731 180.731 261.216 180.731 360.5 180.731 459.784 261.216 540.269 360.5 540.269 459.784 540.269 540.269 459.784 540.269 360.5 540.269 261.216 459.784 180.731 360.5 180.731ZM360.5 114.5C496.362 114.5 606.5 224.638 606.5 360.5 606.5 496.362 496.362 606.5 360.5 606.5 224.638 606.5 114.5 496.362 114.5 360.5 114.5 224.638 224.638 114.5 360.5 114.5Z" stroke="#000000" stroke-width="1.33333" stroke-miterlimit="8" fill-rule="evenodd"/></g></svg>