<svg width="720" height="720" xmlns="http://www.w3.org/2000/svg" xmlns:xlink="http://www.w3.org/1999/xlink" overflow="hidden"><g><rect x="0" y="0" width="720" height="720" fill="#FFFFFF" fill-opacity="0"/><path d="M544.673 228.778 549.41 235.222C607.528 323.244 597.842 442.862 520.352 520.352 442.862 597.842 323.244 607.528 235.222 549.41L228.778 544.673 297.072 476.378 308.509 481.888C324.335 488.582 341.735 492.283 360 492.284 433.058 492.283 492.283 433.058 492.284 360 492.283 341.735 488.582 324.335 481.888 308.509L476.378 297.072ZM357.28 133.245C401.711 132.715 446.268 145.163 484.778 170.59L491.222 175.327 422.928 243.622 411.491 238.112C395.665 231.418 378.265 227.717 360 227.716 286.942 227.717 227.717 286.942 227.716 360 227.717 378.265 231.418 395.665 238.112 411.491L243.622 422.928 175.327 491.222 170.59 484.778C112.472 396.756 122.158 277.138 199.648 199.648 243.236 156.06 300.154 133.926 357.28 133.245Z" fill="#0066FF" fill-rule="evenodd"/></g></svg>