<svg width="720" height="720" xmlns="http://www.w3.org/2000/svg" xmlns:xlink="http://www.w3.org/1999/xlink" overflow="hidden"><g><rect x="0" y="0" width="720" height="720" fill="#FFFFFF" fill-opacity="0"/><path d="M593.846 192.967 507.179 279.634 514.01 293.987C522.29 313.857 526.787 335.737 526.613 358.741 525.918 450.759 450.759 525.918 358.741 526.613 335.737 526.787 313.856 522.29 293.987 514.01L279.634 507.179 192.967 593.846 201.039 599.752C311.35 672.115 462.103 658.776 560.44 560.44 658.776 462.103 672.115 311.351 599.752 201.039ZM358.731 74.4241C286.774 75.8254 214.875 104.246 159.56 159.56 61.2233 257.897 47.8852 408.649 120.247 518.961L126.154 527.033 212.821 440.366 205.99 426.013C197.71 406.143 193.213 384.263 193.387 361.259 194.082 269.241 269.241 194.082 361.258 193.387 384.263 193.213 406.143 197.71 426.013 205.99L440.366 212.821 527.033 126.154 518.961 120.248C470.7 88.5892 414.698 73.3343 358.731 74.4241ZM0 0 720 0 720 720 0 720Z" fill="#0066FF" fill-rule="evenodd"/></g></svg>